<?xml version="1.0" standalone="no"?>
<svg version="1.1" id="Layer_1_1_" xmlns="http://www.w3.org/2000/svg" xmlns:xlink="http://www.w3.org/1999/xlink" x="0px" y="0px" viewBox="0 0 2000 2000" enable-background="new 0 0 2000 2000" xml:space="preserve">
<path id="color_x5F_9" fill="#155780" d="M1000.6,1056.8v9.2c0,1.3-0.7,2.6-1.9,3.2l-64.9,37.7l-71.1,41.3l-51.2,29.8
	c-2.5,1.5-5.6-0.4-5.6-3.2v-12.6c0-1.4,0.7-2.6,1.9-3.3l179.8-101.3l0,0l7.4-4.2C997.5,1052.2,1000.6,1054,1000.6,1056.8z
	 M731.9,699.1L557,800.5c-5.3,3.1-12.2,1.3-15.2-4.1l-53.6-93c-3.1-5.3-1.2-12.1,4.1-15.2l184.6-107L736,683.9
	C739,689.2,737.2,696,731.9,699.1z M659.3,638.5L596,675.2c-1.9,1.1-2.6,3.6-1.5,5.5l3,5.5c1.1,1.9,3.6,2.6,5.5,1.5l63.2-36.7
	c1.9-1.1,2.6-3.6,1.5-5.5l-3-5.5C663.7,638.1,661.2,637.4,659.3,638.5z M584.9,663.9l3,5.5c1.1,1.9,3.6,2.6,5.5,1.5l63.2-36.7
	c1.9-1.1,2.6-3.6,1.5-5.5l-3-5.5c-1.1-1.9-3.6-2.6-5.5-1.5l-63.2,36.7C584.4,659.6,583.8,662,584.9,663.9z M525.2,736.8l63.2-36.7
	c1.9-1.1,2.6-3.6,1.5-5.5L570.5,661c-1.1-1.9-3.6-2.6-5.5-1.5l-63.2,36.7c-1.9,1.1-2.6,3.6-1.5,5.5l19.4,33.6
	C520.8,737.2,523.2,737.9,525.2,736.8z M617.4,742.1L598,708.5c-1.1-1.9-3.6-2.6-5.5-1.5l-63.2,36.7c-1.9,1.1-2.6,3.6-1.5,5.5
	l19.4,33.6c1.1,1.9,3.6,2.6,5.5,1.5l63.2-36.7C617.9,746.5,618.5,744,617.4,742.1z M621.1,718l63.2-36.7c1.9-1.1,2.6-3.6,1.5-5.5
	l-3-5.5c-1.1-1.9-3.6-2.6-5.5-1.5l-63.2,36.7c-1.9,1.1-2.6,3.6-1.5,5.5l3,5.5C616.7,718.4,619.2,719.1,621.1,718z M695.5,692.6
	l-3-5.5c-1.1-1.9-3.6-2.6-5.5-1.5l-63.2,36.7c-1.9,1.1-2.6,3.6-1.5,5.5l3,5.5c1.1,1.9,3.6,2.6,5.5,1.5l63.2-36.7
	C696,696.9,696.6,694.5,695.5,692.6z M502.9,978.3c0,0.1,0.1,0.2,0.1,0.3c0-1.6,0-3.2,0.1-4.7C502.9,976.4,502.8,978,502.9,978.3z
	 M486.1,990c3.2,6,8.1,11.1,14.2,14.6l1.2,0.7l1.4-19l0.1-2.8c-0.9,4.9-4.6,10.7-16,6.7C486.7,990.3,486.4,990.2,486.1,990z
	 M485.8,952.8c1.3-10.9,2.7-20.1,4.3-27.9l-7.9-5.9c-0.4,0.6-0.5,1.4-0.5,2.1v21.6L485.8,952.8z M593.9,1002.3v0.1
	C593.9,1002.4,593.9,1002.4,593.9,1002.3L593.9,1002.3z M811.6,1178.2L811.6,1178.2l-0.3,0.2c-2.4,1.4-5.3-0.3-5.3-3.1v-15.1
	l-189-140.7c-0.9,1.3-1.7,2.3-1.7,2.3c-1.2-0.6,0.1-3.5,0.1-3.5l-1.3-1c-1.7,3.1-4,6.9-4,6.9c-1.9-0.4-0.8-4.4-0.8-4.4
	s1.5-2.4,2.4-4.4l-2.7-2c-1,4.9-3.4,9.5-3.4,9.5s-2.3-1.8-0.9-5.6c0.5-1.5,0.4-4.3,0.1-7.1l-6.7-5c-1,0.9-2.3,1.6-3.5,2.1l2.4,26.4
	c-3.3,1.7-6.8,3.1-10.3,4.3c1,5.4,2,11.8,2.1,17.6l215.3,124.5c1.3,0.8,3,0.8,4.4,0l35.8-20.8L811.6,1178.2z M1014.6,1239.3
	c4.7,0,10.9,0.7,12.7,4.6c3.1,6.6,10-9.6,14.6-10.5s15-5.9,15-5.9s-0.1-10.2,8.8-9c0.4,1.1,0.8,2.2,1,3.3
	c-1.4-5.3-4.5-11.2-6.6-14.9c-2.5-4.5-10.8,1.5-12.3,2.7l0,0c-0.1,0.1-0.1,0.1-0.2,0.1l0,0l0,0c1.3-5.5-5.2-4.8-7.1-5.7
	c-0.2-0.1-0.5-0.1-0.8,0.1c-0.3,0.1-0.5,0.4-0.8,0.7c-0.1,0.2-0.3,0.4-0.4,0.6c-1.4,2.1-2.7,6-3,8.2c0,0.2,0,0.4,0,0.6
	c0,0.1,0,0.3-0.1,0.5v0.1c0,0.2-0.1,0.4-0.2,0.6v0.1c-0.1,0.2-0.2,0.4-0.3,0.6c0,0,0,0.1-0.1,0.1c-0.1,0.2-0.2,0.5-0.4,0.8
	c0,0,0,0.1-0.1,0.1c-0.3,0.6-0.6,1.2-1,1.8c0,0,0,0.1-0.1,0.1c-0.4,0.7-0.8,1.3-1.3,2l0,0c-2.9,4.3-6.5,9-6.5,8.9
	s-6.8,4.7-11.8,10.2C1014.1,1239.8,1014.3,1239.6,1014.6,1239.3z M1108.9,1171.1c0,0.3,0,0.6-0.1,0.9c0,0,0,0.1,0,0.2
	c0,0.3-0.1,0.5-0.1,0.8v0.1c-0.1,0.7-0.3,1.4-0.5,2.1c-2.3,9.1-9.2,25-10.3,32.4c0.2-1.5,0.7-3.4,1.3-5.5c3.3-2.9,9.5-6,17.4,0
	c0,0,5.2-13.9,8.1-13.9s7.5-14.6,7.6-16.7c0.1-1.7-2.2-11.7,2.4-16.1c0.3,0.2,0.6,0.3,0.8,0.5c-4.6-2.4-14-9.7-14-9.7
	s-7.2-1.3-5.8,7.5c0,0-10.5-4.9-10.5,3.9C1105.3,1166.5,1109.5,1162.4,1108.9,1171.1z"></path>
<path id="color_x5F_8" fill="#C1E1F1" d="M600.4,972.9l-9.9-7.2l-3.3-36.6c1.4,0.8,2.5,1.3,3.1,1.6
	C596.4,933.7,599.2,956.9,600.4,972.9z M653.1,820.1l-89.4,51.6c1.1,0.4,2.3,0.8,3.5,1.3c0.2,0.1,0.3,0.1,0.3,0.1s3.4,1.4,6.5,0.7
	c0.6-0.1,1.3,1.3,2.2,3.7c0.4,0.5,0.8,1,1.2,1.6c8.4,8.6,34.9,36.7,35.2,49.8c0.3,11.6,1.4,38.4,2,51.1l0.6-0.2l1.7,5.2l217.3,159.2
	l145.6-82.1L653.1,820.1z M886.3,1425.6c5.6,15.3,3.5,30-4.5,33c-8.1,2.9-19.1-7.1-24.7-22.3c-5.6-15.3-3.5-30,4.5-33
	C869.7,1400.3,880.7,1410.3,886.3,1425.6z M922.1,1411.3c-11.7-32.2-35-53.3-52.1-47.1c-13.1,4.8-18.6,24.2-15.2,47.6
	c0.1-0.5,0.3-1,0.5-1.5c0-0.1,0-0.1,0.1-0.2c0.2-0.5,0.3-0.9,0.5-1.3c0-0.1,0.1-0.1,0.1-0.2c0.2-0.4,0.4-0.8,0.6-1.2l0,0
	c0.2-0.4,0.5-0.7,0.7-1.1c0-0.1,0.1-0.1,0.1-0.2c0.3-0.3,0.5-0.6,0.8-0.9l0.1-0.1c0.3-0.3,0.5-0.5,0.8-0.7l0.1-0.1
	c0.3-0.2,0.6-0.4,0.9-0.6c0.1,0,0.1-0.1,0.2-0.1c0.3-0.2,0.7-0.3,1.1-0.5l0,0l10.6-5.8c0.7-0.5,1.4-0.9,2.2-1.2
	c8.1-2.9,19.1,7.1,24.7,22.3s3.5,30-4.5,33l-10.6,5.8l0,0c-0.3,0.2-0.6,0.5-1,0.6c-0.1,0-0.1,0.1-0.2,0.1c-0.3,0.2-0.7,0.3-1.1,0.5
	c-0.3,0.1-0.7,0.2-1,0.3c-0.1,0-0.2,0-0.3,0.1c-0.3,0.1-0.7,0.1-1,0.1c0,0,0,0-0.1,0c-0.4,0-0.7,0-1.1,0c-0.1,0-0.1,0-0.2,0
	c-0.4,0-0.7-0.1-1.1-0.1l0,0c-0.4-0.1-0.8-0.2-1.2-0.3h-0.1c-0.4-0.1-0.8-0.2-1.2-0.4l0,0c-0.4-0.2-0.8-0.4-1.2-0.6c0,0,0,0-0.1,0
	c-0.4-0.2-0.8-0.4-1.2-0.7l0,0c12.2,18.4,28,28.6,40.5,24C929.6,1474.7,933.9,1443.6,922.1,1411.3z M1188.5,1258.5
	c-11.7-32.2-35-53.3-52.1-47.1c-16,5.8-20.7,33.6-11.6,63.6l20.7-11.9c3.6-2.4,8.5-1.4,10.9,2.3l0,0c2.4,3.6,1.4,8.5-2.3,10.9
	l-23.6,13.6c12.5,27.1,33,43.9,48.4,38.3C1195.9,1321.9,1200.2,1290.7,1188.5,1258.5z"></path>
<path id="color_x5F_7" fill="#E9464F" d="M1288.8,1414.4c-15.4,5.6-35.9-11.1-48.4-38.3l23.6-13.6c3.6-2.4,4.7-7.2,2.3-10.9
	c-2.4-3.6-7.2-4.7-10.9-2.3l-20.7,11.9c-9.2-30-4.4-57.8,11.6-63.6c17-6.2,40.3,14.9,52.1,47.1
	C1310.1,1377,1305.9,1408.2,1288.8,1414.4z M971.5,1489.5c-8.1,2.9-10.1,17.7-4.5,33s16.6,25.3,24.7,22.3s10.1-17.7,4.5-33
	C990.6,1496.6,979.6,1486.6,971.5,1489.5z M1032.1,1497.6c-11.7-32.2-35-53.3-52.1-47.1c-13.1,4.8-18.6,24.2-15.2,47.6
	c1.2-4.3,3.5-7.4,6.7-8.6l0,0l10.6-5.8c0.7-0.5,1.4-0.9,2.2-1.2c8.1-2.9,19.1,7.1,24.7,22.3c5.6,15.3,3.5,30-4.5,33l-10.6,5.8
	c-0.7,0.5-1.4,0.9-2.2,1.2c-3,1.1-6.3,0.4-9.7-1.6c12.2,18.4,28,28.6,40.5,24C1039.5,1561,1043.8,1529.9,1032.1,1497.6z
	 M999.6,692.8v75L973,783.6l26.2-59.8V705l-36.4,84.7l-92,54.7l-1.1-76.3L999.6,692.8z M1130.6,847.1L1085,821
	c-0.3,2.1-0.3,4.7,0.1,7.3l45.5,26l101.1-58.2v-7.2L1130.6,847.1z M1605.3,926c0-4.5,0.2-9.3,1.3-15.5
	c15.8,15.3,40.8,12.8,48.8,10.6l0.2,8.1C1629.9,944.6,1605.3,926,1605.3,926z M1654.1,903.7l1.2,12.4c0,0,29.6-3.6,33.5-11.4
	l-1.2-11.6l0,0C1687.6,893.1,1673.4,905.6,1654.1,903.7z M1590.3,746.9c0.7-2.7,5.8-17.1,7.4-17.9c1.6-0.8,30.7-16.1,30.7-16.1
	s5.1-0.4,5.4,1.3c0.3,1.8,28.6,21.4,18.1-8.8c0,0,7.6-2.4,17.7-4.1c0,0,9.1-3.1,8.9,19.4c-0.1,14.7,12.9,26.1,12.9,26.1
	s-4.7,11.2-15.7,15.4l-2.2-14.6c-24.4-6.2-59.3,21.1-59.3,21.1s-6,14.9-5.8,17.5c0,0-26,3.9-29.7-8
	C1578.6,778,1589.6,749.5,1590.3,746.9z M1611.4,843.7c0,0,19.8,13,45.2,6.7c25.4-6.3,33.5-18.6,33.1-18.6s-4.6-15.2-6.2-20.7
	c-0.2-0.6-0.4-1.7-0.7-3.2c0-0.1-0.1-0.3-0.1-0.5c-0.4-2.1-0.8-4.7-1.3-7.7c-0.1-0.5-0.1-0.9-0.2-1.4c-0.4-2.3-0.7-4.7-1.1-7.3
	c-0.1-0.4-0.1-0.7-0.2-1.1c-0.2-1.1-0.3-2.2-0.5-3.3c-0.1-0.4-0.1-0.7-0.2-1.1c-0.1-0.5-0.1-1-0.2-1.5c-10.6,0.9-49,5.3-62.4,20.7
	c0,0.6,0,1.2,0,1.7c0,0.6,0,1.1,0,1.7c0,0.7,0,1.4,0,2.2C1616.8,821.1,1611.4,843.7,1611.4,843.7z M1680.8,1093.9
	c0.2,0.3,0.5,0.5,0.7,0.8C1681.3,1094.4,1681.1,1094.1,1680.8,1093.9z M1682.3,1095.5c-0.2-0.3-0.5-0.5-0.7-0.8
	C1681.8,1095,1682.1,1095.2,1682.3,1095.5z M1682.3,1095.5c0.9,1.1,1.8,2.2,2.5,3.3C1684.1,1097.7,1683.3,1096.6,1682.3,1095.5z
	 M1628,1080.7c0-0.1,0-0.3,0-0.4C1628.1,1080.4,1628,1080.5,1628,1080.7z M1684.8,1098.8c0.1,0.2,0.2,0.4,0.3,0.6
	C1685,1099.2,1684.9,1099,1684.8,1098.8z M1628.6,1076.5c-0.1,0.2-0.1,0.5-0.2,0.7C1628.5,1076.9,1628.6,1076.7,1628.6,1076.5z
	 M1686.1,1101.4c0.1,0.1,0.1,0.3,0.1,0.4C1686.2,1101.7,1686.2,1101.6,1686.1,1101.4z M1686.6,1103.1c0,0.1,0,0.2,0.1,0.4
	C1686.6,1103.3,1686.6,1103.2,1686.6,1103.1z M1686.4,1102.3c0,0.1,0.1,0.3,0.1,0.4C1686.5,1102.5,1686.5,1102.4,1686.4,1102.3z
	 M1685.8,1100.6c0.1,0.1,0.1,0.3,0.2,0.4C1685.9,1100.9,1685.8,1100.7,1685.8,1100.6z M1685.6,1100.2c-0.1-0.2-0.2-0.3-0.3-0.5
	C1685.4,1099.9,1685.5,1100,1685.6,1100.2z M1686.7,1103.9c0,0.1,0,0.2,0,0.3C1686.7,1104.1,1686.7,1104,1686.7,1103.9z
	 M1629.7,1073c8.8-1.2,8.8,9,8.8,9s10.3,5,15,5.9c4.6,0.9,11.5,17.1,14.6,10.5c1.8-3.9,8-4.6,12.7-4.6c-4.9-5.2-11-9.5-11-9.4
	s-3.6-4.5-6.5-8.9c0.7,3,1.1,6.2,0.4,7c-1.4,1.5-10.1-7.1-10.1-7.1l-6.1-11.3c-1.5-1.1-9.8-7.2-12.3-2.7c-2.1,3.7-5.2,9.5-6.6,14.9
	C1629,1075.2,1629.3,1074.1,1629.7,1073z M1597.5,1067.3c0-0.3-0.1-0.6-0.1-1C1597.5,1066.6,1597.5,1067,1597.5,1067.3z
	 M1628.4,1084c0.9,4.4,3.8,6.9,11.5,8.5C1632.1,1090.9,1629.3,1088.4,1628.4,1084z M1628.4,1084c-0.1-0.7-0.2-1.4-0.3-2.2
	C1628.1,1082.5,1628.2,1083.3,1628.4,1084z M1681.4,1109.4c-0.6,0.1-1.2,0.3-1.8,0.3C1680.2,1109.6,1680.8,1109.5,1681.4,1109.4z
	 M1686.6,1104.7c0,0.1,0,0.2,0,0.3C1686.6,1104.9,1686.6,1104.8,1686.6,1104.7z M1686.4,1105.7c0-0.1,0-0.2,0.1-0.2
	C1686.4,1105.5,1686.4,1105.6,1686.4,1105.7z M1628.3,1078.3c0-0.2,0.1-0.4,0.1-0.6C1628.3,1077.9,1628.3,1078.1,1628.3,1078.3z
	 M1628.2,1079c0,0.2,0,0.3-0.1,0.5C1628.1,1079.3,1628.1,1079.2,1628.2,1079z M1560.7,1027.6c0.1,2.3,5,17.8,8.1,17.8
	c3.2,0,8.7,14.9,8.7,14.9c8.4-6.5,15-3.1,18.5,0c0.7,2.2,1.2,4.2,1.4,5.9c-1.2-7.9-8.5-24.8-11-34.5l0,0c-3,9.5-6.5,4.8-8.1,4
	c-1.9-1,0-26.8,0-26.8c1.6-9.4-6.1-8-6.1-8s-9,6.9-14.1,9.8C1563.1,1015.2,1560.6,1025.8,1560.7,1027.6z M1597.2,1069.8
	c0.1-0.2,0.2-0.4,0.2-0.6C1597.4,1069.4,1597.3,1069.6,1597.2,1069.8z M1597.6,1067.4c0,0.3,0,0.6,0,0.9
	C1597.6,1068,1597.6,1067.7,1597.6,1067.4z M1597.6,1068.5c0,0.2,0,0.4-0.1,0.6C1597.5,1068.9,1597.5,1068.7,1597.6,1068.5z
	 M1130.6,313.1v268.8l419,242V555.5L1130.6,313.1z M1529.3,799L1151,580.5V337.9l378.3,218.9V799z M618.3,1178.9
	c-0.2,1.2-8.5,6.9-15.9,8.1c-1.8,0.3-3.4,0.3-4.8-0.1c-7.3-2.1,5.2-11.9,7.3-26.8s13.5-13,13.5-13
	C633.1,1155.7,619,1175.3,618.3,1178.9z M492.2,1204c-9.3,7.9-26.4-1.1-27.5-0.6l0,0c-0.1,0.4-0.1,0.6-0.1,0.6s15.2,6.4,22.4,6.1
	c7.1-0.3,18.2-0.1,18.9-5.1c0.1-0.5,0-2.4,0-3.3C504.6,1199.7,500,1197.4,492.2,1204z M737.1,1198.2l-152.5-114.9
	c0.4,4.8,1.5,8.2,1.5,8.2s-5.5,3.4-13.7,6.5c5,3.2,14.9,10.5,25.6,24.1l122,90.4l-145.6,82.1L259.5,1064c0-0.1,0-0.2,0-0.3v-16
	l133.7-77.2l100,74.1c2-3.9,4.1-7.4,6.1-10.4l1.1-14.4l-74-55.7v-88.2l-129.4,75c-5.3,3.1-12.2,1.3-15.2-4.1l-53.6-93
	c-3.1-5.3-1.2-12.1,4.1-15.2l-4.1,2.4c-3.4,2-5.5,5.7-5.5,9.6v61.6c0,4,2.1,7.6,5.5,9.6l6.4,3.8v136l-13,7.5L546,1310.6v2.2
	c0-1.4,0.7-2.6,1.9-3.3L735.1,1204c2.5-1.4,5.6,0.4,5.6,3.3v-1.9C740.7,1202.6,739.4,1199.9,737.1,1198.2z M259.5,940.2l22.3,13.1
	c3.5,2,7.7,2,11.2,0l108.6-63v75c0,0.1,0,0.2,0,0.2l-142.1,81.9V940.2z M536.3,1064.9c-1.7-0.2-3.8,2.8-5.9,7.2l7.5,5.6
	C538.7,1070.9,538.7,1065.2,536.3,1064.9z"></path>
<path id="color_x5F_6" fill="#F399A2" d="M1842.9,1105.6v69.7l-907.7,524.1l-778.1-449.2v-69.7l778.1,449.2L1842.9,1105.6z
	 M1150.9,337.9l102.3,301.7l60.1,34.7l-92.5-296.1L1150.9,337.9z M1385.7,473.7l75.8,286.2l-82.1-47.4l-90.9-295.1L1385.7,473.7z
	 M1130.6,730.5l-81,47.1c2.3,0,4.7,0.3,7.1,1.2c10.5,3.9,19,6.6,24.4,10.5l0,0l14.3-8.2l43,24.8l-21.5,12.4l-29.5-17
	c0.5,6.8-1.2,14.3-1.2,14.3s-0.8,2.2-1.2,5.5l45.7,26.1l101.1-58.2L1130.6,730.5z M805,768.3l0.1-38l73.5-41.7l-48.8,56.2
	l-24.5-14.3l-0.1,37.7L805,768.3z M879.1,688.4l56.2-31.9l46.3,26.2l-133.5,72.8l0,0l-11.6-6.7l59.4-69.9L879.1,688.4z M805.1,779.4
	l-0.1,26.4l-0.2-0.1l0.1-26.1L805.1,779.4z M999.6,692.8l-129.9,75.3l-14.1-8.2L989.2,687l-5.2-3L999.6,692.8z M720,1212.5
	l-145.6,82.1L259.5,1064c0-0.1,0-0.2,0-0.3v-16l133.7-77.2l100,74.1c-9.8,18.6-18.9,44.3-18.9,44.3c0.8,1.3,2,2.6,3.5,3.7
	c-1.3,3.2-2.2,5.8-2.5,7.2c-1.4,7.1,5.7,66.4,8.1,86c-0.1,0.1-0.2,0.2-0.3,0.3c0,0-0.9,5.9-2.2,7.6c-1.3,1.7-12,0.1-13.4,0.9
	c-1.4,0.7-3.3,4.6-2.9,6.3c0.3,1.2,0.1,2.2,0,2.7l0,0l0,0c0,0.1,0,0.1,0,0.2s0,0.1,0,0.1l0,0c0,0.2-0.1,0.3-0.1,0.3
	s15.2,6.4,22.4,6.1c7.1-0.3,18.2-0.1,18.9-5.1c0.1-0.5,0-2.4,0-3.3l0,0c-0.1-7.8-2.3-24.3-2.3-24.3s-0.1,0-0.4,0
	c1.1-20.1,3.7-55.4,8.6-69.3c0.5-1.5,1.1-3.3,1.8-5.4c3.8,0.5,6.4,0.7,6.4,0.7s5.2-20,10.4-31.2l7.5,5.6
	c-1.3,10.4-4.7,23.4-4.7,23.4c2,0.7,4,1.2,6,1.6c0.4,3.6,1,6.8,2.1,9.1c6.5,13.3,37.2,32.1,55.6,42.6c-1.1,5.4-3.4,15.8-6,24.6
	c0,0,0.7,5.4,5.4,7.4c0.3,0.2,0.7,0.4,1.2,0.5c1.4,0.4,3,0.4,4.8,0.1c7.4-1.2,15.7-6.9,15.9-8.1c0.7-3.3,12.4-19.8,3.3-29.2
	c-1-1.6-6.1-9.3-11.3-9.2c-4.1-7.1-8.2-13.2-12.3-18.3L720,1212.5z"></path>
<path id="color_x5F_5" fill="#FFD2BB" d="M1655.3,916c0,0,8.4-1,16.9-3.2c-2.3,10.4-5,19.3-8,24.4c-4.3,7.1-7.6,10.8-10.1,12.7
	c-0.1,6.4-0.2,11.2-0.2,11.2l1.2,56.4c0,0,0.5,27.3,0.7,41.1c-0.1-0.1-0.3-0.1-0.4-0.1s-0.3,0-0.4,0.1c-0.5,0.2-1.2,0.3-2.1,0.5
	c-2.6,0.4-6,1.1-5,5.2l0,0l0,0l-0.1-0.1l0,0l0,0c-1.2-1-7.3-5.4-10.7-4.1c-0.1-4.1-1.2-9.6-1.2-9.6c1.2-6.6-7.9-41.5-9.6-46.6
	c-1-2.9-1.2-14-0.4-24.2c-8,9.2-27.6,25.2-36.2,33.9c0-0.2,0-0.5,0-0.7c0-9.4-11.2-4.2-11.2-4.2c0.8-4.6-0.7-6.6-2.3-7.5
	c6.6-5.1,14.6-13.2,18.6-23.1c6.4-15.7,15.9-22.4,26.6-30.2c5.4-4,8.1-8.6,9.5-12.2c0-0.2,0-0.4,0-0.6c7.6,0.6,16.1-0.7,24.9-6
	L1655.3,916z M1589.1,895.4c0,0,1.2,0.3,0.8-3.2c0,0,3.3,8.6,3.9,2.1c0,0,5,6.1,4.2,0c0,0,5.5,7,6.7,2.9c1.3-4.1-5.2-7.9-5.7-15.9
	c0,0,8.8,3.4,9.2-2c0,0-10.1-6.2-10.9-8.2s-3.3-1.3-4-10.5s7.4-18.7,6.3-44.7c0,0-1.3-12.8-1-16.2c0.2-1.6,2.2-7.2,4.9-13.1
	c-4.9,0.3-12.6,0.3-18.2-2.1c-3.2,8.3-5.8,14.5-7,15.8c-3.9,4.3,5.4,60.7,5.4,60.7S1582.6,890.4,1589.1,895.4z M1742.3,849.7
	c-4.3-1.8-17.8-16.1-17.8-16.1c11.4,2.1,12.7-5,10.3-4.3s-17.4-3.1-17.4-3.1s-15.9-22-17.4-28.8c-1.2-5.4-17.5-26.4-24.2-34.8
	c0.3,2.2,1.7,11.6,3.1,21.5c0.1,0.5,0.1,1,0.2,1.5c0,0.4,0.1,0.7,0.2,1.1c0.2,1.1,0.3,2.2,0.5,3.3c0,0.4,0.1,0.7,0.2,1.1
	c0.4,2.5,0.8,5,1.1,7.3c0.1,0.5,0.2,0.9,0.2,1.4c0.4,2.2,0.7,4.2,1,5.9c11,11.8,23.9,26.1,23.8,28.1c0,3.6,13.3,18.1,13.3,18.1
	s7.5,10.8,9.6,10.2s-1.3-6.2-1.3-6.2s3.7,3.7,6.2,4.4c2.5,0.6-3.1-7.2-3.1-7.2s6.6,3.7,8.8,3.8c2.2,0.1-2.7-5.7-2.7-5.7
	C1743.2,853.1,1746.6,851.5,1742.3,849.7z M1671.3,657c-0.7-1.3-1.5-2.5-2.3-3.6c-1,2.5-7.3,13.8-32.2,4.4c0,0-4.7,11.4-2.1,21.7
	c0,0-5.4-3.8-4.7-7.1c0,0-2.7,2.4-6,0c-0.3-0.2-0.6-0.6-0.9-1c-1.8-0.3-3.6,0.4-3.8,4.1c-0.5,8.1,9.5,8.2,9.5,8.2s0.8,1.2,2.1,3
	c0.6,6.3,1.8,21.1,0.7,26.2l0,0c0.4,0.1,0.7,0.1,1,0.2c0.1,0,0.1,0,0.2,0.1c0.1,0,0.1,0,0.2,0.1c0.1,0,0.1,0.1,0.2,0.1l0.1,0.1
	c0.1,0,0.1,0.1,0.2,0.1l0.1,0.1c0,0,0.1,0.1,0.1,0.2c0,0,0,0.1,0.1,0.1c0,0.1,0.1,0.2,0.1,0.3v0.1l0,0c0,0,0,0.1,0.1,0.1
	c0,0,0,0,0,0.1c0,0,0.1,0.1,0.1,0.2l0,0c0.1,0.1,0.1,0.1,0.2,0.2c0,0,0,0,0.1,0.1s0.1,0.1,0.2,0.2c0,0,0.1,0,0.1,0.1
	c0.1,0.1,0.2,0.1,0.3,0.2c0,0,0,0,0.1,0.1c0.2,0.2,0.5,0.4,0.8,0.6c0,0,0.1,0,0.1,0.1c0.1,0.1,0.3,0.2,0.4,0.3c0,0,0,0,0.1,0
	c0.5,0.4,1.1,0.7,1.6,1.1l0,0c4,2.6,10,5.4,13.5,4l0,0c2.9-1.2,4.1-5.5,0.7-15.6c-1.3,0.7-2.5,1.3-3.4,1.8c-0.3-1.8-0.8-3.7-1.3-5.6
	c3.4,2,7.1,3.5,10.9,3.7c14,0.8,17.1-15.4,16.4-32.5C1674.2,669.8,1672.9,661.9,1671.3,657z M1014.2,972.9c0.2-2,0.4-4.1,0.7-6.1
	c3.5,4.2,11.3,11.6,24.4,13.1c5.8,0.7,10.8,1,15.2,0.8c0.1,0,0.2,0,0.3,0c1.6-0.1,3.1-0.2,4.5-0.5c0.3,0,0.5-0.1,0.8-0.1
	c1.1-0.2,2.2-0.5,3.3-0.8c2.8-0.9,5.2-2.2,7.2-4c0.1-0.1,0.1-0.1,0.2-0.2c1.4-1.4,2.5-3,3.5-4.9c0,0-0.5-0.7-1.1-2.1
	c1.1,1.9,2.3,3.8,3.3,5.8C1036.3,995.5,1015.5,974.4,1014.2,972.9z M1061.4,823.7c-20.9,0.5-33.3-21.5-33.3-21.5
	c0.1,6.5-5.4,12.5-5.4,12.5s-0.5,12.6,0.8,22c0.1,0.8,0.3,1.5,0.5,2.3c0.6,1.9,1.4,3.6,2.4,5.1c1.3,2,2.9,3.3,4.1,4.2
	c2.1,1.4,4.7,2.1,7.9,1.9c3.2-0.2,6.3-1.2,9.3-2.8c-0.5,2-0.9,4-1.2,5.7c0,0.1,0,0.1,0,0.2c-0.9-0.1-2.1-0.2-3.4-0.2
	c0.1,1.7,0.2,5.2,0.2,6.6c0,1.9,0.1,9.6,7.1,9.2l0,0c0.3,0,0.6-0.1,0.9-0.1c0.7-0.1,1.3-0.3,2-0.6
	C1062.2,851.5,1061.4,823.7,1061.4,823.7z M1081.2,914.8l-0.9-1.3c0,0,0,2-0.6,6C1080.4,917.3,1081,915.7,1081.2,914.8z
	 M1091.5,926.5c4.6,7,8.7,14.8,8.9,16.7c0.4,3.5-1,16.2-1,16.2c-1.2,26.1,3.4,36.3,2.7,45.5s-3.2,8.5-4,10.5s-10.9,8.2-10.9,8.2
	c0.4,5.4,9.2,2,9.2,2c-0.5,8-7,11.9-5.7,15.9c1.3,4.1,6.7-2.9,6.7-2.9c-0.8,6.1,4.2,0,4.2,0c0.5,6.6,3.9-2.1,3.9-2.1
	c-0.4,3.5,0.8,3.2,0.8,3.2c6.4-5,5.5-34.4,5.5-34.4s9.3-56.4,5.4-60.7c-1.7-1.8-6.1-13.2-10.9-26.2
	C1100.9,922,1094.6,925.1,1091.5,926.5z M1016.5,949.4l2.3-8.7l0,0l0,0l0,0c0,0,0-0.1,0.1-0.2l0,0c0-0.1,0.1-0.2,0.1-0.3l0,0
	c0.7-1.7,2.4-6.7,2.3-12l0,0c-0.1-3.6-1-7.4-3.7-10.3c-7.2,8.4-19.4,23.1-20.6,27.4c-1.7,6.1-16.8,25.2-16.8,25.2
	s-13.6,2.9-15.7,2.1c-2.1-0.7-1.3,5.7,9,4.3c0,0-12.7,12.4-16.7,13.8c-3.9,1.4-1,3,4.8,1.5c0,0-4.6,5-2.6,5s8.1-3.1,8.1-3.1
	s-5.4,6.8-3.1,6.3c2.3-0.5,5.7-3.7,5.7-3.7s-3.3,4.9-1.4,5.5c1.9,0.6,9-8.8,9-8.8s12.5-12.5,12.6-15.7
	C990.2,975.5,1005.7,960,1016.5,949.4z M1142.4,1163.8c0.3,2,0.9,7.9-0.4,12.2c0.6-1.2,1.1-2.7,1.6-4.8
	C1144.2,1168.2,1143.7,1165.8,1142.4,1163.8z M1105.3,1157.3c0.3-8.3,10.5-3.5,10.5-3.5c-0.4-2.5-0.1-4.2,0.5-5.4
	c-5.2-6.2-11.5-15.9-15.6-26c-6.4-15.7-15.9-22.4-26.6-30.2c-5.4-4-8.1-8.6-9.5-12.2c0.1-1.2,0.2-1.9,0.2-1.9s1.7-8.6,4.3-20.2
	c-3.8-1.9-8.5-4.7-14-8.9c-19.5-14.8-22.8,2.8-33,2.8c2.5,12.7,5.6,23.9,9.2,29.7c4.3,7.1,7.6,10.8,10.1,12.7
	c0.1,6.4,0.2,11.2,0.2,11.2l-1.2,56.4c0,0-0.5,29-0.7,42.3c0,0,0,0,0.1,0c0.3-0.1,0.5-0.2,0.8-0.1c1.9,0.9,8.4,0.2,7.1,5.7l0,0l0,0
	c0,0,0.1-0.1,0.2-0.1l0,0l0,0c1.2-1,7.2-5.4,10.7-4.1c-0.1-4.1,1.2-10.8,1.2-10.8c-1.2-6.6,7.9-41.5,9.6-46.6c1-2.9,1.2-14,0.4-24.2
	C1077.4,1132.9,1096.4,1148.5,1105.3,1157.3z M547.9,855.1c-0.5,1.2-2.3,2.3-4.9,3.4v7.7l-21.2,5.8c0.5-1.9,1.4-5.7,2.1-8.9
	c-9,1.1-17.7,0.8-20-1.9c-4-4.6,1.3-25.2,3.9-34.3c2.9,3,12.6-1.9,10.1,4.7c-2.6,6.6,4.6,16.3,4.6,16.3l0.1-9.5c0,0-0.4-5.6,7.9-4.2
	c9.9,1.7-2.8,12-2.8,12C532,856.2,547.9,855.1,547.9,855.1z M567.3,872.9c-2-0.7-3.8-1.4-5.6-1.9
	C564.4,871.9,566.5,872.7,567.3,872.9z M586.5,920.3l0.8,8.8c1.4,0.8,2.5,1.3,3.1,1.6c7.8,3.9,10.2,41.2,10.9,53.6
	c-0.7,1.8-4.5,12.4-4.9,14.6c-0.2,0.8-1.2,2.2-2.4,3.6l0.5,5c2.2-0.8,4.4-2.3,5-4.4c1.2-4.2,3.8-0.8,3.8-0.8s2.7,11.3,1.4,15.1
	c-1.4,3.8,0.9,5.6,0.9,5.6s5.2-10,3.4-16.4s2.8,5.5,3.3,6.6s-3,6.7-3,6.7s-1.1,3.9,0.8,4.4c0,0,5.4-8.7,5.7-10.5
	c0.3-1.9-2.3-9.5-2.3-9.5s4.5,7,4.4,9c-0.2,2-2.4,5.1-2.4,5.1s-1.3,2.9-0.1,3.5c0,0,6-8.1,5.8-9.3c-0.2-1.1-1.9-8.7-1.9-8.7
	s1.2-0.5,1.9,1.3c0.7,1.9,1.1,2.2,1.1,2.2s-2.3,3.4-0.6,4c0,0,3.4-2.8,3.3-4.3c-0.1-1.5-2.5-5.1-2.5-5.1l-7.1-22.2l-0.6,0.2
	c-0.6-12.8-1.7-39.5-2-51.1c-0.3-13.1-26.8-41.2-35.2-49.8c-0.4-0.6-0.8-1.1-1.2-1.6C580.2,888.4,586.5,920.3,586.5,920.3z
	 M597.8,1150.5c0,0,2.9-8.5,11.9-9.9c0.2,0,0.4,0,0.6-0.1c-14.7-25.7-31-38-37.9-42.4c-9.1,3.5-21.4,6.6-33.1,4.6
	c0.4,3.6,1,6.8,2.1,9.1c6.5,13.3,37.2,32.1,55.6,42.6C597.5,1151.9,597.8,1150.5,597.8,1150.5z M477.8,1092.6
	c-1.3,3.2-2.2,5.8-2.5,7.2c-1.4,7.1,5.7,66.4,8.1,86c7.6-7,17.7-8.1,19.8-8.3c1.1-20.1,3.7-55.4,8.6-69.3c0.5-1.5,1.1-3.3,1.8-5.4
	C504,1101.4,486.1,1098.5,477.8,1092.6z M514.1,876.7l5.3-2.8C518,874.5,516.1,875.5,514.1,876.7z M458.7,929.7
	c-0.1-1.2-0.1-2.3,0.2-3.3l0,0L446,906.9c0,0-3.4-2.8-3.8-4.2c-0.5-1.4,2.1-5,2.1-5c1.8,0.1,0.5,4,0.5,4s0.5,0.3,1.6,1.9
	c1.1,1.6,2.2,0.8,2.2,0.8s-3.7-6.8-4.1-7.8c-0.5-1,3.1-10.5,3.1-10.5c1.3,0.3,0.9,3.4,0.9,3.4s-1.3,3.6-0.9,5.6s6.6,7.5,6.6,7.5
	s-4.6-6.6-4.8-8.5c-0.2-1.9,2.7-11.7,2.7-11.7c2-0.1,2,4,2,4s-1.8,6.3-1,7.2s8.4,11.2,4.9,5.5s-1.1-16.7-1.1-16.7s2.7,1.1,2.4,5.1
	s5.4,14.2,5.4,14.2s3.4,2.6,3.4-1.8c0-4.4,6.8-7.8,8.1-7.8c1.2,0-4.2,8.6-4,11c0.2,2.5,0,14.8,0,14.8l-0.6,0.4l14.3,34.7
	c5.2-44.4,13.5-60.7,18-66.5c3.5,10,12.6,38.7,7,52.4c-6.8,16.7-7.2,19-7.2,19l-0.7,25.9c-0.9,4.9-4.6,10.7-16,6.7
	C469.8,984.4,458.7,929.7,458.7,929.7z M502.9,978.3c0,0.1,0.1,0.2,0.1,0.3c0-1.6,0-3.2,0.1-4.7C502.9,976.4,502.8,978,502.9,978.3z
	"></path>
<path id="color_x5F_4" fill="#00CEC9" d="M1654.6,996.9l0.4,20.7c0,0,0.5,27.3,0.7,41.1c0.1,0.1,0.2,0.1,0.3,0.2c0,0,0.1,0,0.1,0.1
	c0.3,0.2,0.6,0.6,0.8,1c0.2,0.3,0.4,0.7,0.6,1.1c0.4,0.8,0.8,1.7,1.2,2.6c0.6,1.6,1,3.3,1.2,4.5c0,0.2,0,0.4,0,0.6
	c0,0.1,0,0.3,0.1,0.5v0.1c0,0.2,0.1,0.4,0.2,0.6v0.1c0.1,0.2,0.2,0.4,0.3,0.6c0,0,0,0.1,0.1,0.1c0.1,0.2,0.2,0.5,0.4,0.8
	c0,0,0,0.1,0.1,0.1c0.3,0.6,0.6,1.2,1,1.8c0,0,0,0.1,0.1,0.1c0.4,0.7,0.8,1.3,1.3,2c2.9,4.3,6.5,9,6.5,8.9s6.1,4.3,11,9.4l0,0
	c0.3,0.3,0.5,0.5,0.7,0.8l0,0c0.2,0.3,0.5,0.5,0.7,0.8l0,0c0.9,1.1,1.8,2.2,2.5,3.3l0,0c0.1,0.2,0.2,0.4,0.3,0.6
	c0.1,0.1,0.1,0.2,0.2,0.3c0.1,0.2,0.2,0.3,0.3,0.5c0.1,0.1,0.1,0.3,0.2,0.4s0.1,0.3,0.2,0.4s0.1,0.3,0.2,0.4s0.1,0.3,0.1,0.4
	s0.1,0.3,0.1,0.4s0.1,0.3,0.1,0.4s0.1,0.3,0.1,0.4s0,0.2,0.1,0.4c0,0.1,0,0.3,0,0.4s0,0.2,0,0.3c0,0.1,0,0.3,0,0.4s0,0.2,0,0.3
	c0,0.2-0.1,0.3-0.1,0.5c0,0.1,0,0.2-0.1,0.2c-0.1,0.2-0.2,0.5-0.3,0.7c-2.6,4.3-10.3,3.9-16.3,2.9c-0.9-0.2-1.8-0.3-2.7-0.5
	c-0.3-0.1-0.5-0.1-0.8-0.2c-2.3-0.5-3.9-1-4.1-1c-0.1,0-0.7-0.6-1.6-1.6s-2.1-2.3-3.6-3.8c-0.3-0.3-0.7-0.6-1-1
	c-0.3-0.3-0.7-0.6-1-1c-1-0.9-2-1.7-3.1-2.5c-0.9-0.7-1.9-1.4-2.9-2c-3.9-1.9-7-2.3-10.6-3.5c-4.3-1-6.9-2.5-8.4-4.5
	c-0.1-0.1-0.2-0.3-0.3-0.4c-0.2-0.3-0.3-0.5-0.4-0.8c-0.4-0.7-0.6-1.5-0.8-2.3c0-0.1-0.1-0.2-0.1-0.4c-0.1-0.6-0.2-1.3-0.3-2
	c0-0.4,0-0.7,0-1.1c0-0.1,0-0.3,0-0.4c0-0.2,0-0.5,0.1-0.7c0-0.2,0-0.3,0.1-0.5c0-0.2,0.1-0.4,0.1-0.7c0-0.2,0.1-0.4,0.1-0.6
	s0.1-0.4,0.1-0.5c0.1-0.2,0.1-0.5,0.2-0.7v-0.1c0.3-1.1,0.6-2.2,1-3.3l0,0l0,0c1.6-4.3,3.9-8.6,5.5-11.5c0.4-0.7,1-1.2,1.6-1.4
	c-0.1-4.1-1.2-9.6-1.2-9.6c1.2-6.6-7.9-41.5-9.6-46.6c-1-2.9-1.2-13.6-0.4-23.7l-0.3-0.2c-8.1,9.2-27.4,25-35.9,33.5
	c-0.2,8.5-4.4,4.6-3.9,13.6c0,0.3,0.1,0.6,0.1,0.9c0,0.1,0,0.1,0,0.2c0,0.3,0.1,0.6,0.1,0.9v0.1c0.1,0.3,0.1,0.7,0.2,1l0,0
	c0.1,0.4,0.2,0.8,0.3,1.2c2.1,8.2,7.6,21.6,10,30.3v0.1c0.1,0.5,0.3,1,0.4,1.5c0,0,0,0,0,0.1c0.2,1,0.4,1.9,0.5,2.7
	c0,0.1,0,0.1,0,0.2c0,0.3,0.1,0.6,0.1,0.9c0,0.1,0,0.2,0,0.3c0,0.2,0,0.4,0,0.6c0,0.1,0,0.2,0,0.3c0,0.2,0,0.4-0.1,0.5
	c0,0.1,0,0.2,0,0.2c-0.1,0.2-0.1,0.4-0.2,0.6c-2.7,4.7-16.8,7.3-26-5.3c-9.2-12.6-11.9-24.4-17.7-27.6c-5.8-3.3-3.4-18.1-3.4-18.1
	s2.3-5.1,7.1-7.7c0.3-0.1,0.6-0.3,0.9-0.5c5.1-2.9,14.1-9.8,14.1-9.8s2-0.4,3.8,0.6c6.6-5.1,14.6-13.2,18.6-23.1
	c1.9-4.8,4.2-8.7,6.6-12.1l-536.4-309.7l-65.3,37.7v73.7L973,783.6l0,0l-10.2,6.1l0,0L871,844.3v0.3l-20.7-12.1l-6.9-4l-37.9-22.2
	l-73.1,42.2L997,1047.7c2.3,1.7,3.6,4.4,3.6,7.2v1.9v9.2v2.2l-1.9,1.1l0,0l-64.9,37.7L808,1180.1c-1.3,0.8-3,0.8-4.4,0l-215.3-124.5
	c0.1,4.4-0.4,8.3-1.6,11.1c-2.5,5.5-2.6,11.7-2.2,16.5L737,1198.1c2.3,1.7,3.6,4.4,3.6,7.2v1.9v9.2v2.2l-87.4,50.8l-101.7,59.1l0,0
	l-3.5,2c-1.3,0.8-3,0.8-4.4,0L240.1,1155c-6.1-3.5-10.9-8.6-14.1-14.6l-69.1,39.9L935,1629.5l907.7-524.1L1654.6,996.9z M997,1037.6
	l17.1-64.7c0,0,0,0,0.1,0.1c0.2-2,0.4-4.1,0.7-6.1c-1.5-1.8-2.2-3-2.2-3l3.8-14.5c-10.9,10.6-26.4,26.1-26.5,28.2
	c-0.1,3.2-12.6,15.7-12.6,15.7s-7.1,9.4-9,8.8c-1.9-0.6,1.4-5.5,1.4-5.5s-3.4,3.2-5.7,3.7s3.1-6.3,3.1-6.3s-6.1,3.1-8.1,3.1
	s2.6-5,2.6-5c-5.7,1.4-8.7-0.1-4.8-1.5s16.7-13.8,16.7-13.8c-10.3,1.4-11.2-5-9-4.3c2.1,0.7,15.7-2.1,15.7-2.1s15.1-19.2,16.8-25.2
	c1.2-4.3,13.4-19,20.6-27.4c-0.4-0.5-0.9-0.9-1.4-1.3c-9.6-7.9-6.2-20.6-6.2-20.6l-3.7-4.8l0,0l0,0c1.5-0.6,2.8-1.6,4-2.7
	c0.6-0.6,1.2-1.2,1.7-1.8s1-1.2,1.5-1.8c1.8-2.4,2.8-4.5,2.8-4.5s0.2-0.3,0.4-1c-1.9-5.7-8.8-6.9-12.4-14.1
	c-4.4-8.8-2.6-17.4,7.7-31.5c10.3-14.2,3.4-11.4,4.4-25.6c1-14.2,14.4-21.2,14.4-21.2s7.9-9.2,18.7-9.4l81-47.1l101.2,58.4v7.2
	l-101.1,58.2l-45.5-26c0.6,3.5,2.1,7.1,5.2,10.2c9.3,9,7.7,17.8,8.8,21.9s-1.2,11.4-4.3,15.2c-0.7,0.9-1.4,2-2.1,3.2
	c1.4,2.4,7.8,13.2,11.5,19.3c0.2,0.3,0.3,0.5,0.5,0.8c0.3,0.5,0.6,1,0.9,1.4c0.5,0.8,0.9,1.5,1.2,1.8c2,2.9,7.7,6.2,7.7,6.2
	c-0.1,1.6-1,3.3-2.4,4.9c-1.5,1.7-3.6,3.4-5.9,5c4.8,13,9.2,24.4,10.9,26.2c3.9,4.3-5.4,60.7-5.4,60.7s0.9,29.4-5.5,34.4
	c0,0-1.2,0.3-0.8-3.2c0,0-3.3,8.6-3.9,2.1c0,0-5,6.1-4.2,0c0,0-5.5,7-6.7,2.9c-1.3-4.1,5.2-7.9,5.7-15.9c0,0-8.8,3.4-9.2-2
	c0,0,10.1-6.2,10.9-8.2s3.3-1.3,4-10.5s-3.8-19.4-2.7-45.5c0,0,1.3-12.8,1-16.2c-0.2-1.9-4.3-9.7-8.9-16.7c-1.1,0.5-1.7,0.8-1.7,0.8
	l0,0l-8.6-12.4c-0.3,0.8-0.8,2.5-1.5,4.7c-0.7,4.6-2.1,11.8-5.3,21.8c-0.1,0.3-0.2,0.7-0.3,1c-4.5,13.8-2.6,22.1-1.1,25.7
	c1.1,1.9,2.3,3.8,3.3,5.8l0,0c0,0,17.3,20.9,10.6,49c-6.7,28.1-1.9,38.1-1.9,38.1s-4.5,2.7-16-3c-2.6,11.6-4.3,20.2-4.3,20.2
	s-0.1,0.7-0.2,1.9c1.4,3.6,4.1,8.2,9.5,12.2c10.7,7.9,20.2,14.5,26.6,30.2c4.1,10,10.4,19.8,15.6,26c1.6-2.8,5.3-2.2,5.3-2.2
	s9.5,7.2,14,9.7c4.6,2.4,6.7,7.2,6.7,7.2s0,0.2,0.1,0.7c1.3,2,1.9,4.4,1.2,7.4c-0.5,2.1-1,3.6-1.6,4.8c-0.5,1.8-1.4,3.3-2.9,4.1
	c-1,0.6-2,1.4-2.8,2.5c-0.6,0.7-1.2,1.6-1.7,2.5c-0.3,0.5-0.6,0.9-0.8,1.4c-2.8,5-5.8,12.1-11.2,19.5c-2.4,3.3-5.2,5.5-8,6.9
	c-0.3,0.1-0.6,0.3-0.9,0.4c-0.6,0.3-1.3,0.5-1.9,0.7c-3.7,1.1-7.3,0.8-9.9-0.2c-0.4-0.2-0.8-0.3-1.2-0.6c-1.1-0.6-2-1.4-2.4-2.2
	c-0.1-0.2-0.2-0.3-0.2-0.5c0-0.1,0-0.1,0-0.2c0-0.2-0.1-0.3-0.1-0.5c0-0.1,0-0.2,0-0.3c0-0.2,0-0.4,0-0.6c0-0.1,0-0.2,0-0.3
	c0-0.3,0.1-0.5,0.1-0.8c0-0.1,0-0.1,0-0.2c0.1-0.8,0.3-1.6,0.5-2.5l0,0c0.1-0.4,0.2-0.9,0.4-1.4v-0.1c0.1-0.5,0.3-1,0.4-1.5l0,0l0,0
	c2.4-8.2,7.1-19.7,9-26.9c0.2-0.8,0.4-1.5,0.5-2.1v-0.1c0.1-0.3,0.1-0.6,0.1-0.8c0,0,0-0.1,0-0.2c0-0.3,0.1-0.6,0.1-0.9
	c0.6-8.7-3.6-4.6-3.6-13.5c0-0.1,0-0.2,0-0.4c-8.9-8.8-27.9-24.4-35.7-33.3c0.8,10.2,0.7,21.2-0.4,24.2c-1.8,5.1-10.8,40-9.6,46.6
	c0,0-1.3,6.6-1.2,10.8c0.7,0.2,1.2,0.7,1.7,1.4c1.6,2.9,4,7.2,5.5,11.5l0,0c0.4,1.1,0.8,2.2,1,3.3v0.1c0.1,0.2,0.1,0.5,0.2,0.7
	c0,0.2,0.1,0.4,0.1,0.5c0,0.2,0.1,0.4,0.1,0.6s0.1,0.4,0.1,0.7c0,0.2,0,0.3,0.1,0.5c0,0.3,0,0.5,0.1,0.7c0,0.1,0,0.3,0,0.4
	c0,0.4,0,0.7,0,1.1c-0.1,0.7-0.1,1.4-0.3,2c0,0.1,0,0.2-0.1,0.4c-0.2,0.8-0.4,1.6-0.8,2.3c-0.1,0.3-0.3,0.5-0.4,0.8
	c-0.1,0.1-0.2,0.3-0.3,0.4c-1.9,2.5-5.4,4.1-11.8,5.1c-3.6,0.6-7.1,2.5-10.1,4.8c-1.4,1-2.7,2.1-3.8,3.2c-0.9,0.9-1.8,1.7-2.6,2.5
	c-0.2,0.2-0.4,0.4-0.6,0.6c-0.7,0.8-1.3,1.4-1.9,2c-0.1,0.2-0.3,0.3-0.4,0.4c-0.2,0.2-0.4,0.4-0.5,0.6c-0.1,0.1-0.2,0.2-0.2,0.3l0,0
	c-0.1,0.1-0.2,0.2-0.3,0.3l-0.1,0.1c-0.1,0-0.8,0.2-1.9,0.5c-0.1,0-0.2,0-0.3,0.1c-0.8,0.2-1.7,0.4-2.7,0.6
	c-0.6,0.1-1.2,0.3-1.9,0.4c-0.6,0.1-1.1,0.2-1.7,0.3c-0.3,0-0.6,0.1-1,0.1c-0.7,0.1-1.3,0.2-2,0.2c-5,0.5-10.3,0-12.3-3.4
	c-0.1-0.2-0.2-0.4-0.3-0.7c0-0.1,0-0.2-0.1-0.2c-0.1-0.2-0.1-0.3-0.1-0.5c0-0.1,0-0.2,0-0.3c0-0.1,0-0.3,0-0.4s0-0.2,0-0.3
	c0-0.1,0-0.3,0-0.4s0-0.2,0.1-0.4c0-0.1,0-0.3,0.1-0.4c0-0.1,0.1-0.3,0.1-0.4s0.1-0.3,0.1-0.4s0.1-0.3,0.1-0.4
	c0.1-0.1,0.1-0.3,0.2-0.4c0.1-0.1,0.1-0.3,0.2-0.4c0.1-0.1,0.1-0.3,0.2-0.4c0.1-0.2,0.2-0.3,0.3-0.5c0.1-0.1,0.1-0.2,0.2-0.3
	c0.1-0.2,0.2-0.4,0.3-0.6l0,0c0.7-1.1,1.6-2.2,2.5-3.3l0,0c0.2-0.3,0.5-0.5,0.7-0.8l0,0c5-5.5,11.8-10.3,11.8-10.2
	c0,0.1,3.6-4.5,6.5-8.9l0,0c0.5-0.7,0.9-1.4,1.3-2c0,0,0-0.1,0.1-0.1c0.4-0.6,0.7-1.2,1-1.8c0,0,0-0.1,0.1-0.1
	c0.1-0.3,0.3-0.5,0.4-0.8c0,0,0-0.1,0.1-0.1c0.1-0.2,0.2-0.4,0.3-0.6v-0.1c0.1-0.2,0.1-0.4,0.2-0.6v-0.1c0-0.2,0.1-0.3,0.1-0.5
	s0-0.4,0-0.6c0.2-2.2,1.6-6.1,3-8.2c0.1-0.2,0.3-0.4,0.4-0.6c0.3-0.3,0.5-0.6,0.8-0.7c0.2-13.3,0.7-42.3,0.7-42.3l1.2-56.4
	c0,0-0.1-4.9-0.2-11.2c-2.5-1.9-5.8-5.7-10.1-12.7c-3.6-5.9-6.7-17.1-9.2-29.7c-1.3,0-2.6-0.3-4.1-0.9
	C1004.1,1045.2,997,1037.6,997,1037.6z M939.7,1466.1l-22.4,12.3c-1.4,1.1-3,1.9-4.7,2.6c-12.5,4.5-28.3-5.6-40.5-24
	c-5.8-3.5-11.5-11-15-20.7c-3.3-9.1-3.9-18-2.2-24.4c-3.4-23.4,2.1-42.9,15.2-47.6l0,0l0,0l22.4-12.3c1.4-1.1,3-1.9,4.7-2.6
	c14-5.1,32.3,8.3,44.9,31.3l182.8-105.7c-9.2-30-4.4-57.8,11.6-63.6l0,0l0,0c0,0,25.4-14.2,27.1-14.8c10.7-3.9,23.9,3,35.2,16.7
	c8.1-2.8,19,7.1,24.6,22.4c4.9,13.4,3.9,26.4-1.9,31.4c3,22.8-2.6,41.6-15.4,46.3l-22.4,12.3c-1.4,1.1-3,1.9-4.7,2.6
	c-15.4,5.6-35.9-11.1-48.4-38.3l-181.9,105.1c0.2,0.5,0.4,1,0.6,1.6C961,1428.7,956.7,1459.9,939.7,1466.1z M1331.3,1353.3
	c3,22.8-2.6,41.6-15.4,46.3l-22.4,12.3c-1.4,1.1-3,1.9-4.7,2.6c-15.4,5.6-35.9-11.1-48.4-38.3l-181.9,105.1c0.2,0.5,0.4,1,0.6,1.6
	c11.7,32.2,7.4,63.4-9.6,69.6l-22.4,12.3c-1.4,1.1-3,1.9-4.7,2.6c-12.5,4.5-28.3-5.6-40.5-24c-5.8-3.5-11.5-11-15-20.7
	c-3.3-9.1-3.9-18-2.2-24.4c-3.4-23.4,2.1-42.9,15.2-47.6l0,0l22.4-12.3c1.4-1.1,3-1.9,4.7-2.6c14-5.1,32.3,8.3,44.9,31.3
	l182.8-105.7c-9.2-30-4.4-57.8,11.6-63.6l0,0c0,0,25.4-14.2,27.1-14.8c10.7-3.9,23.9,3,35.2,16.7c8.1-2.8,19,7.1,24.6,22.4
	C1338.1,1335.3,1337.1,1348.3,1331.3,1353.3z M241.9,846.7l63.2-36.7c1.9-1.1,4.4-0.5,5.5,1.5l19.4,33.6c1.1,1.9,0.4,4.4-1.5,5.5
	l-63.2,36.7c-1.9,1.1-4.4,0.5-5.5-1.5l-19.4-33.6C239.3,850.2,239.9,847.8,241.9,846.7z M268,899.6l19.4,33.6
	c1.1,1.9,3.6,2.6,5.5,1.5l63.2-36.7c1.9-1.1,2.6-3.6,1.5-5.5l-19.4-33.6c-1.1-1.9-3.6-2.6-5.5-1.5l-63.2,36.7
	C267.5,895.2,266.8,897.7,268,899.6z M352.7,861.5l3,5.5c1.1,1.9,3.6,2.6,5.5,1.5l63.2-36.7c1.9-1.1,2.6-3.6,1.5-5.5l-3-5.5
	c-1.1-1.9-3.6-2.6-5.5-1.5L354.2,856C352.3,857.1,351.6,859.6,352.7,861.5z M362.4,878.2l3,5.5c1.1,1.9,3.6,2.6,5.5,1.5l63.2-36.7
	c1.9-1.1,2.6-3.6,1.5-5.5l-3-5.5c-1.1-1.9-3.6-2.6-5.5-1.5l-63.2,36.7C361.9,873.9,361.3,876.3,362.4,878.2z M325,814.4l3,5.5
	c1.1,1.9,3.6,2.6,5.5,1.5l63.2-36.7c1.9-1.1,2.6-3.6,1.5-5.5l-3-5.5c-1.1-1.9-3.6-2.6-5.5-1.5l-63.2,36.7
	C324.5,810,323.9,812.5,325,814.4z M334.6,831.1l3,5.5c1.1,1.9,3.6,2.6,5.5,1.5l63.2-36.7c1.9-1.1,2.6-3.6,1.5-5.5l-3-5.5
	c-1.1-1.9-3.6-2.6-5.5-1.5l-63.2,36.7C334.2,826.8,333.5,829.2,334.6,831.1z M1680.8,1093.9c-4.7,0-10.9,0.7-12.7,4.6
	c-3.1,6.6-10-9.6-14.6-10.5s-15-5.9-15-5.9s0.1-10.2-8.8-9c-1.1,3.1-1.9,6.1-1.7,8.7c0.5,6.2,3.2,9.3,13.7,11.1
	c10.5,1.8,19.9,14.6,20.5,14.6c0.6,0.1,19.3,6.1,23.8-1.1C1688.1,1103.1,1684.9,1098.2,1680.8,1093.9z M1596,1060.3
	c1.4,4.6,2,8.1,1.2,9.5c-2.7,4.7-16.8,7.3-26-5.3c-9.2-12.6-11.9-24.4-17.7-27.6c-5.8-3.3-3.4-18.1-3.4-18.1s2.3-5.1,7.1-7.7
	c0.3-0.1,0.6-0.3,0.9-0.5c4.9,4.7,2.5,15.3,2.6,17.1c0.1,2.3,5,17.8,8.1,17.8c3.2,0,8.7,14.9,8.7,14.9
	C1585.9,1053.8,1592.5,1057.2,1596,1060.3z M1253.2,639.6l-102.3-59.1V337.9L1253.2,639.6z M1220.8,378.2l-69.8-40.4l137.4,79.5
	l90.9,295.1l-66-38.1L1220.8,378.2z M1529.3,556.7V799l-102.1-59l34.3,19.8l-75.8-286.2l-66.9-38.7L1529.3,556.7z M1067.3,1227.2
	c0.2-2.6-0.5-5.7-1.7-8.7c-8.8-1.2-8.8,9-8.8,9s-10.3,5-15,5.9c-4.6,0.9-11.5,17.1-14.6,10.5c-1.8-3.9-8-4.6-12.7-4.6
	c-4.1,4.3-7.3,9.2-5.2,12.5c4.5,7.2,23.2,1.2,23.8,1.1c0.6-0.1,10.1-12.8,20.5-14.6C1064.1,1236.5,1066.9,1233.4,1067.3,1227.2z
	 M1139.1,1180.1c-5.5,3.1-8,14.1-16.6,25.9s-21.9,9.4-24.4,5c-0.8-1.3-0.1-4.7,1.2-9c3.3-2.9,9.5-6,17.4,0c0,0,5.2-13.9,8.1-13.9
	s7.5-14.6,7.6-16.7c0.1-1.7-2.2-11.7,2.4-16.1c0.3,0.2,0.6,0.3,0.8,0.5c4.6,2.4,6.7,7.2,6.7,7.2S1144.6,1177.1,1139.1,1180.1z
	 M1089.8,927.2l-9.5-13.7l1.3-9.6c0,0-37.4-17.6-63.5-16.7c0,0-2.8,2.6-7.9,8.5c0,0-3.4,12.7,6.2,20.6c3.8,3.1,5,7.4,5,11.6
	c11.8,0.1,39.4,1.6,53.1,13.2v0.1c6-18.6,5.9-27.8,5.9-27.8L1089.8,927.2L1089.8,927.2z M501.8,696.2l63.2-36.7
	c1.9-1.1,4.4-0.5,5.5,1.5l19.4,33.6c1.1,1.9,0.4,4.4-1.5,5.5l-63.2,36.7c-1.9,1.1-4.4,0.5-5.5-1.5l-19.4-33.6
	C499.2,699.8,499.9,697.3,501.8,696.2z M527.9,749.2l19.4,33.6c1.1,1.9,3.6,2.6,5.5,1.5l63.2-36.7c1.9-1.1,2.6-3.6,1.5-5.5
	l-19.4-33.6c-1.1-1.9-3.6-2.6-5.5-1.5l-63.2,36.7C527.4,744.8,526.8,747.2,527.9,749.2z M612.6,711l3,5.5c1.1,1.9,3.6,2.6,5.5,1.5
	l63.2-36.7c1.9-1.1,2.6-3.6,1.5-5.5l-3-5.5c-1.1-1.9-3.6-2.6-5.5-1.5l-63.2,36.7C612.2,706.7,611.5,709.1,612.6,711z M622.3,727.8
	l3,5.5c1.1,1.9,3.6,2.6,5.5,1.5l63.2-36.7c1.9-1.1,2.6-3.6,1.5-5.5l-3-5.5c-1.1-1.9-3.6-2.6-5.5-1.5l-63.2,36.7
	C621.9,723.4,621.2,725.9,622.3,727.8z M584.9,663.9l3,5.5c1.1,1.9,3.6,2.6,5.5,1.5l63.2-36.7c1.9-1.1,2.6-3.6,1.5-5.5l-3-5.5
	c-1.1-1.9-3.6-2.6-5.5-1.5l-63.2,36.7C584.4,659.6,583.8,662,584.9,663.9z M594.6,680.7l3,5.5c1.1,1.9,3.6,2.6,5.5,1.5l63.2-36.7
	c1.9-1.1,2.6-3.6,1.5-5.5l-3-5.5c-1.1-1.9-3.6-2.6-5.5-1.5L596,675.2C594.1,676.3,593.5,678.8,594.6,680.7z M1085.6,794.1
	c1.1,2,1.6,4.5,1.8,7.2l29.5,17l21.5-12.4l-43-24.8l-14.3,8.2C1083,790.7,1084.5,792.3,1085.6,794.1z M843.4,828.4l4.7-72.9
	l133.5-72.8l7.6,4.3l-133.6,72.9l-5.3,72.5L843.4,828.4z M999.2,705l-36.4,84.7l10.2-6.1l26.2-59.8V705z M804.8,779.6l31.7-30.9
	l59.4-69.9l-17.3,9.8l-48.8,56.2l-24.9,23.6v11.2H804.8z M544.1,867.8l-1-1.7l-22.4,6.1l-1.3,1.7l-16.9,8.9c0,0,15.1,39.2,8.3,55.9
	c-6.8,16.7-7.2,19-7.2,19l-0.8,28.7l-3.8,51.9c0,0,58.5,15.2,97.7-4.6l-10.3-113.5c0,0-9.2-47.2-12.4-46.6c-3.1,0.7-6.5-0.7-6.5-0.7
	S548.7,865.9,544.1,867.8z"></path>
<path id="color_x5F_3" fill="#E84393" d="M612.1,1013.1c0.2,0.4-0.1,1.3-0.6,2.3l-2.7-2c0.5-2.4,0.6-4.8,0.1-6.9
	C607.1,1000,611.6,1012,612.1,1013.1z M613.4,1004.2c0,0,2.6,7.6,2.3,9.5c-0.1,0.6-0.8,2.1-1.7,3.7l1.3,1l0,0c0,0,2.2-3.1,2.4-5.1
	C617.9,1011.1,613.4,1004.2,613.4,1004.2z M599.3,1003c-0.2,0.9-0.8,1.6-1.4,2.3l6.7,5c-0.5-4-1.5-8-1.5-8S600.5,998.8,599.3,1003z
	 M1075.4,941.3c-13.8-11.5-41.4-13.1-53.1-13.2c0.1,6.5-2.5,12.7-2.5,12.7l-6.1,23.2c0,0,8,13.9,26.5,16.1
	c18.6,2.1,29.9,0.6,34.9-9.8c0,0-6.3-8.6,0-27.8C1075.2,942,1075.3,941.7,1075.4,941.3z M1115.5,908.5c-0.4,8.6-24.7,18.8-24.7,18.8
	l-9.5-13.7l1.3-9.6c0,0-37.4-17.6-63.5-16.7c0,0-2.8,2.6-7.9,8.5l-3.7-4.8c5.2-2.1,9-8.8,9.8-10.4c0.1,0.9,0.2,1.9,0.1,3
	c0,0,5.5-5.6,4-14.3s3.3-14.4,3.3-14.4s2.3,9.2,13.2,18.1c0,0-5.7-13.2-5.7-20.8c5.6-0.4,11.8-0.2,11.8-0.2s0.2,5.7,0.2,7.6
	s0.1,9.6,7.1,9.2c0.6,0,1.2-0.2,1.7-0.3c-0.8,1.4-1.6,2.7-2.5,3.9c0,0,8.2-1.2,13.8-8.8c0,0-3.2,7.1,3,13.7c6.2,6.5,13,2.1,17.4,5.7
	c4.4,3.6,3.8,5,3.8,5s2.3-6,4.8-10.3c0.1,0.3,0.1,0.5,0.1,0.5s12.4,21.1,14.4,23.9C1109.8,905.2,1115.5,908.5,1115.5,908.5z
	 M1223.3,1235.6c-5.5-15.2-16.5-25.2-24.6-22.4c-11.2-13.7-24.4-20.6-35.2-16.7c-1.7,0.6-27.1,14.8-27.1,14.8l0,0
	c17-6.2,40.3,14.9,52.1,47.1c10.6,29,8.1,57.2-4.9,67l22.4-12.3c12.8-4.7,18.4-23.5,15.4-46.3
	C1227.2,1262,1228.2,1249,1223.3,1235.6z M894.6,1451.5l-10.6,5.8c6.2-4.7,7.3-18,2.3-31.8c-5.6-15.3-16.6-25.3-24.7-22.3l10.6-5.8
	c0.7-0.5,1.4-0.9,2.2-1.2c8.1-2.9,19.1,7.1,24.7,22.3S902.6,1448.6,894.6,1451.5z M939.7,1466.1l-22.4,12.3c13-9.8,15.5-38,4.9-67
	c-11.7-32.2-35-53.3-52.1-47.1l0,0l22.4-12.3c1.4-1.1,3-1.9,4.7-2.6c17-6.2,40.3,14.9,52.1,47.1
	C961,1428.7,956.7,1459.9,939.7,1466.1z M1154.1,1276.2L948.6,1395c-1.9-5.1-4.1-9.9-6.6-14.3l203.5-117.6c3.6-2.4,8.5-1.4,10.9,2.3
	l0,0C1158.8,1268.9,1157.8,1273.8,1154.1,1276.2z M915.3,1396.1L915.3,1396.1c0.2,0.3,0.4,0.7,0.6,1
	C915.7,1396.8,915.5,1396.4,915.3,1396.1z M600.4,972.9l-9.9-7.2l3.3,36.6l0.1,0.1c1.2-1.4,2.1-2.7,2.3-3.5
	c0.4-2.2,4.3-12.7,4.9-14.6C601,981.4,600.8,977.4,600.4,972.9z M481.6,918.7l11.4-6.5c-1,3.8-2,8-2.9,12.8L481.6,918.7z
	 M494.6,906.5V775.2l24.8,14.5v4.2c-5.1,0.5-11.2,2.5-16.9,8.1c-13,12.8,2.4,21.7,5.3,24.7l0,0c-2.6,9.1-7.9,29.7-3.9,34.3
	c1.9,2.2,8.2,2.8,15.5,2.3v10.5l-0.1,0.1l0,0c-1.4,0.6-3.3,1.5-5.3,2.8l-11.6,6.1c0,0,0.5,1.3,1.3,3.5
	C501.4,889.4,498,895.3,494.6,906.5z M482.7,761.8v-61.6c0-4,2.1-7.6,5.5-9.6l4.1-2.4c-5.3,3.1-7.1,9.9-4.1,15.2l53.6,93
	c3.1,5.3,9.9,7.2,15.2,4.1l174.9-101.4l-179,103.8c-0.9,0.5-1.8,0.9-2.7,1.1c-9.1-5.1-19.7-8.7-19.7-8.7s-1.2-0.5-3.3-0.9
	l-39.1-22.9C484.8,769.4,482.7,765.8,482.7,761.8z M1000.6,1054.9v1.9c0-2.9-3.1-4.7-5.6-3.3l-15.1,8.5L653.1,820l-89.4,51.6l0,0
	c-0.1,0-0.2-0.1-0.3-0.1l98.1-56.5c0-0.1,0-0.2,0-0.2v-75l24.8-14.4v88.2l310.6,234C999.3,1049.4,1000.6,1052.1,1000.6,1054.9z
	 M806,1162.3v12.6c0,2.9,3.1,4.7,5.6,3.2l-0.3,0.2c-2.4,1.4-5.3-0.3-5.3-3.1v-15.1l-189-140.7c0.3-0.4,0.6-0.8,0.9-1.3
	c0.1-0.1,0.2-0.2,0.2-0.4c0.1-0.1,0.1-0.2,0.2-0.3c0.1-0.2,0.3-0.4,0.4-0.6c0-0.1,0.1-0.1,0.1-0.2c0.1-0.2,0.2-0.4,0.4-0.6
	c0-0.1,0.1-0.1,0.1-0.2c0.1-0.2,0.3-0.4,0.4-0.7c0-0.1,0.1-0.1,0.1-0.1c0.1-0.2,0.2-0.4,0.3-0.6c0,0,0-0.1,0.1-0.1
	c0.1-0.2,0.2-0.4,0.3-0.6c0,0,0-0.1,0.1-0.1c0.1-0.2,0.2-0.3,0.2-0.5l0,0c0.1-0.1,0.1-0.3,0.1-0.4v-0.1c0-0.1,0-0.2,0-0.3
	c-0.2-1.1-1.9-8.7-1.9-8.7s1.2-0.5,1.9,1.3c0.7,1.9,1.1,2.2,1.1,2.2s-2.3,3.4-0.6,4c0,0,3.4-2.8,3.3-4.3c-0.1-1.5-2.5-5.1-2.5-5.1
	l-5.5-17L834,1143.9l-26.4,14.9C806.7,1159.7,806,1161,806,1162.3z"></path>
<path id="color_x5F_2" fill="#FBC02D" d="M1014.1,972.9c0,0,20.8,23.3,62.2,1c0,0,17.3,20.9,10.6,49c-6.7,28.1-1.9,38.1-1.9,38.1
	s-8.1,4.8-30-11.9c-21.9-16.7-23.3,7.6-37.1,1.9c-13.8-5.7-20.9-13.3-20.9-13.3L1014.1,972.9z M1031,787c0,0-13.4,7-14.4,21.2
	s5.9,11.4-4.4,25.6c-10.3,14.2-12.1,22.7-7.7,31.5s13.7,8.6,12.8,18.6c0,0,5.5-5.6,4-14.3s3.3-14.4,3.3-14.4s2.3,9.2,13.2,18.1
	c0,0-7.5-17.2-5.4-23.7c0,0-7.6-3.5-8.9-12.9c-1.3-9.4-0.8-22-0.8-22s5.5-5.9,5.4-12.5c0,0,12.4,22,33.3,21.5c0,0,1,33.3-10.9,48.9
	c0,0,8.2-1.2,13.8-8.8c0,0-3.2,7.1,3,13.7c6.2,6.5,13,2.1,17.4,5.7c4.4,3.6,3.8,5,3.8,5s3.3-8.8,6.4-12.6s5.4-11.2,4.3-15.2
	s0.5-12.8-8.8-21.9c-9.3-9-4.2-23-4.2-23s3.3-14.4-0.6-21.4s-14.5-10.1-28.8-15.3C1042.5,773.5,1031,787,1031,787z"></path>
<path id="color_x5F_1" fill="#0984E3" d="M464.8,1203.3L464.8,1203.3c0,0,0.1,0,0.2,0c0,0,0,0,0.1,0c0.2,0,0.6,0.1,1,0.3h0.1
	c0.5,0.2,1.1,0.4,1.8,0.6c0.6,0.2,1.3,0.5,2.1,0.7c0.1,0,0.2,0.1,0.2,0.1c0.4,0.1,0.8,0.3,1.2,0.4c2.6,0.6,5.5,1.3,8.4,1.7
	c0.5,0,1,0.1,1.5,0.1c0.1,0,0.2,0,0.3,0c0.5,0,1,0,1.5,0l0,0c0.5,0,1-0.1,1.4-0.1c0.1,0,0.2,0,0.3,0c0.5-0.1,1-0.1,1.5-0.2l0,0
	c0.5-0.1,0.9-0.2,1.4-0.4c0.1,0,0.2-0.1,0.3-0.1c0.5-0.2,0.9-0.3,1.4-0.5l0,0c0.4-0.2,0.8-0.4,1.2-0.7c0.1-0.1,0.2-0.1,0.3-0.2
	c0.4-0.3,0.8-0.6,1.2-0.9c0.5-0.4,1-0.8,1.4-1.1c0.2-0.1,0.3-0.2,0.4-0.3c0.3-0.2,0.6-0.4,0.9-0.6c0.2-0.1,0.3-0.2,0.4-0.3
	c0.3-0.2,0.6-0.3,0.8-0.5c0.1-0.1,0.3-0.1,0.4-0.2c0.3-0.1,0.5-0.3,0.8-0.4c0.1-0.1,0.3-0.1,0.4-0.1c0.2-0.1,0.5-0.2,0.7-0.3
	c0.1,0,0.2-0.1,0.4-0.1c0.2-0.1,0.5-0.1,0.7-0.2c0.1,0,0.3,0,0.4-0.1c0.2,0,0.4-0.1,0.6-0.1c0.1,0,0.3,0,0.4,0c0.2,0,0.3,0,0.5,0
	c0.1,0,0.3,0,0.4,0s0.3,0,0.4,0s0.3,0,0.4,0.1c0.1,0,0.2,0,0.3,0.1c0.1,0,0.3,0.1,0.4,0.1s0.2,0.1,0.3,0.1c0.1,0.1,0.3,0.1,0.4,0.2
	c0.1,0,0.1,0.1,0.2,0.1c0.1,0.1,0.3,0.2,0.4,0.2c0,0,0.1,0,0.1,0.1c0.1,0.1,0.3,0.2,0.4,0.3c0,0,0,0,0.1,0.1s0.2,0.2,0.3,0.3l0,0
	c0.1,0.1,0.2,0.2,0.3,0.4l0,0c-0.1-7.8-2.3-24.3-2.3-24.3s-11.9,0.4-20.4,8.6c0,0-0.9,5.9-2.2,7.6c-1.3,1.7-12,0.1-13.4,0.9
	c-1.4,0.7-3.3,4.6-2.9,6.3C465,1201.9,464.9,1202.9,464.8,1203.3z M604.8,1160.1c2.1-14.9,13.5-13,13.5-13c1.3,0.8,2.4,1.6,3.3,2.6
	c-1-1.7-6.5-10-11.9-9.1c-9.1,1.4-11.9,9.9-11.9,9.9s-3.1,15.8-6.8,28.4c0,0,0.7,5.4,5.4,7.4
	C591.9,1183.4,602.9,1173.9,604.8,1160.1z M1331.3,1353.3c3,22.8-2.6,41.6-15.4,46.3l-22.4,12.3c13-9.8,15.5-38,4.9-67
	c-11.7-32.2-35-53.3-52.1-47.1c0,0,25.4-14.2,27.1-14.8c10.7-3.9,23.9,3,35.2,16.7c8.1-2.8,19,7.1,24.6,22.4
	C1338.1,1335.3,1337.1,1348.3,1331.3,1353.3z M1009,1504.8c-5.6-15.3-16.6-25.3-24.7-22.3c-0.8,0.3-1.5,0.7-2.2,1.2l-10.6,5.8
	c8.1-2.9,19.1,7.1,24.7,22.3c5,13.8,3.9,27.1-2.3,31.8l10.6-5.8C1012.5,1534.9,1014.6,1520.1,1009,1504.8z M1010.9,1511.2
	c0.1,0.5,0.2,1,0.3,1.5C1011.1,1512.2,1011,1511.7,1010.9,1511.2z M1011.6,1514.8c-0.1-0.6-0.2-1.2-0.3-1.8
	C1011.4,1513.6,1011.5,1514.2,1011.6,1514.8z M1010.3,1509c0.2,0.6,0.3,1.2,0.5,1.8C1010.7,1510.2,1010.5,1509.6,1010.3,1509z
	 M1011.9,1516.9c0.1,1.2,0.2,2.3,0.2,3.4C1012.1,1519.2,1012,1518.1,1011.9,1516.9z M1009.8,1507.2c0.2,0.5,0.3,1,0.5,1.5
	C1010.1,1508.2,1010,1507.7,1009.8,1507.2z M1011.8,1516.6c-0.1-0.5-0.1-1-0.2-1.5C1011.7,1515.5,1011.8,1516,1011.8,1516.6z
	 M1012.1,1523.9c0-0.5,0.1-1.1,0.1-1.6C1012.1,1522.8,1012.1,1523.4,1012.1,1523.9z M1011.3,1528.7c-0.2,0.9-0.5,1.8-0.8,2.6
	C1010.8,1530.5,1011.1,1529.7,1011.3,1528.7z M1011.9,1525.7c-0.1,1-0.3,2-0.5,2.9C1011.6,1527.7,1011.8,1526.7,1011.9,1525.7z
	 M1009.9,1532.6L1009.9,1532.6c0.2-0.4,0.4-0.8,0.5-1.2C1010.3,1531.9,1010.1,1532.3,1009.9,1532.6z M1012.1,1522.2c0-0.5,0-1,0-1.5
	C1012.1,1521.2,1012.1,1521.7,1012.1,1522.2z M1009,1504.8c0.2,0.6,0.4,1.2,0.6,1.8C1009.4,1506.1,1009.2,1505.4,1009,1504.8z
	 M1012,1524.1c0,0.5-0.1,1-0.1,1.4C1012,1525,1012,1524.6,1012,1524.1z M1059.2,1482.8c-11.7-32.2-35-53.3-52.1-47.1
	c-1.7,0.6-3.2,1.5-4.7,2.6l-22.4,12.3c17-6.2,40.3,14.9,52.1,47.1c10.6,29,8.1,57.2-4.9,67l22.4-12.3
	C1066.6,1546.2,1070.9,1515,1059.2,1482.8z M1000.2,1489.5c-0.4-0.4-0.7-0.8-1.1-1.2C999.5,1488.7,999.8,1489.1,1000.2,1489.5z
	 M1009,1504.8c-0.2-0.6-0.5-1.2-0.7-1.8C1008.6,1503.6,1008.8,1504.2,1009,1504.8z M1000.3,1489.6c0.3,0.4,0.6,0.8,1,1.1
	C1000.9,1490.3,1000.6,1489.9,1000.3,1489.6z M999,1488.2c-0.3-0.3-0.7-0.7-1-1C998.3,1487.5,998.6,1487.8,999,1488.2z M1001.4,1491
	c0.7,0.9,1.3,1.8,2,2.7C1002.8,1492.8,1002.1,1491.8,1001.4,1491z M993,1483.5c-0.4-0.2-0.8-0.4-1.1-0.5
	C992.2,1483.2,992.6,1483.3,993,1483.5z M995.5,1485.2c0.8,0.6,1.5,1.2,2.3,1.9C997.1,1486.3,996.3,1485.7,995.5,1485.2z
	 M995.4,1485.1c-0.8-0.6-1.5-1-2.3-1.5C993.9,1484,994.6,1484.5,995.4,1485.1z M1008.1,1502.6c-0.2-0.5-0.4-1-0.6-1.5
	C1007.7,1501.6,1007.9,1502.1,1008.1,1502.6z M1004.6,1495.6c0.3,0.5,0.6,1,0.9,1.5C1005.2,1496.6,1004.9,1496.1,1004.6,1495.6z
	 M1003.7,1494.1c0.3,0.4,0.6,0.9,0.8,1.3C1004.2,1494.9,1003.9,1494.5,1003.7,1494.1z M1006.6,1499.2c0.3,0.5,0.5,1.1,0.8,1.7
	C1007.1,1500.2,1006.8,1499.7,1006.6,1499.2z M1005.7,1497.5c0.2,0.4,0.5,0.9,0.7,1.3C1006.2,1498.3,1005.9,1497.9,1005.7,1497.5z
	 M1266.3,1351.6c-2.4-3.6-7.2-4.7-10.9-2.3L1052,1466.9c2.4,4.4,4.6,9.2,6.6,14.3l205.5-118.8
	C1267.7,1360.1,1268.7,1355.2,1266.3,1351.6z M1614.2,768.5c0,0,34.9-27.3,59.3-21.1l2.2,14.6c0,0,1.5,10.6,3.2,22
	c-10.6,0.9-49,5.3-62.4,20.7C1616.8,795.1,1618,783.3,1614.2,768.5z M1655.4,921.1L1655.4,921.1l0.2,8.1L1655.4,921.1z
	 M1656.6,850.4c-18.5,4.6-34-1-41.1-4.4c-2.4,8.4-5.6,26.4-8.9,64.6c15.8,15.3,40.8,12.8,48.8,10.6l-0.1-5.1l-1.2-12.4
	c19.3,1.9,33.5-10.6,33.5-10.6l0,0l-5.6-53.8C1676.8,843,1668.7,847.3,1656.6,850.4z M1653.6,1075.5c0,0,8.7,8.5,10.1,7.1
	c0.7-0.7,0.2-3.9-0.4-7c-1.9-2.8-3.4-5.5-3.4-6.7c0-3-3.1-11.1-5-10.2s-8.4,0.2-7.1,5.7c0,0-0.1-0.1-0.2-0.2L1653.6,1075.5z
	 M1585.6,1027.2c-0.6-9.3,3.9-5,3.9-14.4s-11.2-4.2-11.2-4.2s-1.9,25.8,0,26.8c1.7,0.9,5.1,5.5,8.1-4
	C1586,1029.9,1585.7,1028.4,1585.6,1027.2z M1674.3,639.6c3.3-4.9,0.4-11.5,0.4-11.5s-0.7,3.3-4.4,7.4c-3.7,4.1-28.1,1-36.1,3.4
	c-7.9,2.4-6.9,10.2-6.9,10.2c-8.9,6.2-6.7,20.9-3.4,23.3c3.3,2.4,6,0,6,0c-0.8,3.3,4.7,7.1,4.7,7.1c-2.6-10.3,2.1-21.7,2.1-21.7
	c27.9,10.5,32.4-4.9,32.4-4.9c3.2,2,5.9,22.4,5.9,22.4c8.7-12.8-2.2-27.5-2.2-27.5c4.5-2.1,5.7-8.3,5.7-8.3
	C1675.9,641.9,1674.3,639.6,1674.3,639.6z M869.7,768.1l1.3,76.4l-20.7-12.1l5.3-72.5l0,0L869.7,768.1z M1142.3,588.6l407.3,235.2
	L1142.3,588.6L1142.3,588.6z M1570.4,542.8L1152,300.6l-21.4,12.5l419,242.4v268.3l21.4-12.3L1570.4,542.8z M829.8,744.8
	L829.8,744.8l-24.5-14.3l-0.1,37.7L829.8,744.8z M836.5,748.7l-31.4,30.7l-0.1,26.5l38.4,22.5l4.7-72.9L836.5,748.7L836.5,748.7z
	 M358.5,990.4l55.7-32.1l0,0L358.5,990.4z M735.1,1204l-7.4,4.2l0,0l-179.8,101.3c-1.2,0.7-1.9,1.9-1.9,3.3v-2.2l-323.8-241
	c-0.4,0.6-0.5,1.4-0.5,2.1v51.2c0,13.3,7.1,25.6,18.6,32.3l303.5,175.5c1.3,0.8,3,0.8,4.4,0l3.5-2l0,0l187.2-108.9
	c1.2-0.7,1.9-1.9,1.9-3.2v-9.2C740.7,1204.4,737.6,1202.6,735.1,1204z M472,849.5L297.1,950.9c-5.3,3.1-12.2,1.3-15.2-4.1l-53.6-93
	c-3.1-5.3-1.2-12.1,4.1-15.2l184.6-107l59.1,102.7C479.1,839.6,477.3,846.4,472,849.5z M399.4,789l-63.2,36.7
	c-1.9,1.1-2.6,3.6-1.5,5.5l3,5.5c1.1,1.9,3.6,2.6,5.5,1.5l63.2-36.7c1.9-1.1,2.6-3.6,1.5-5.5l-3-5.5
	C403.8,788.5,401.3,787.9,399.4,789z M325,814.4l3,5.5c1.1,1.9,3.6,2.6,5.5,1.5l63.2-36.7c1.9-1.1,2.6-3.6,1.5-5.5l-3-5.5
	c-1.1-1.9-3.6-2.6-5.5-1.5l-63.2,36.7C324.5,810,323.9,812.5,325,814.4z M265.3,887.2l63.2-36.7c1.9-1.1,2.6-3.6,1.5-5.5l-19.4-33.6
	c-1.1-1.9-3.6-2.6-5.5-1.5l-63.2,36.7c-1.9,1.1-2.6,3.6-1.5,5.5l19.4,33.6C260.9,887.7,263.3,888.4,265.3,887.2z M357.5,892.5
	l-19.4-33.6c-1.1-1.9-3.6-2.6-5.5-1.5l-63.2,36.7c-1.9,1.1-2.6,3.6-1.5,5.5l19.4,33.6c1.1,1.9,3.6,2.6,5.5,1.5L356,898
	C358,896.9,358.6,894.5,357.5,892.5z M361.2,868.4l63.2-36.7c1.9-1.1,2.6-3.6,1.5-5.5l-3-5.5c-1.1-1.9-3.6-2.6-5.5-1.5L354.2,856
	c-1.9,1.1-2.6,3.6-1.5,5.5l3,5.5C356.8,868.9,359.3,869.5,361.2,868.4z M435.6,843l-3-5.5c-1.1-1.9-3.6-2.6-5.5-1.5l-63.2,36.7
	c-1.9,1.1-2.6,3.6-1.5,5.5l3,5.5c1.1,1.9,3.6,2.6,5.5,1.5l63.2-36.7C436,847.4,436.7,844.9,435.6,843z M547.9,855.1
	c0,0,4-1.7,14.9-12s-0.3-24.5-0.3-24.5c4-11.1-32-23.4-32-23.4s-15.1-6-28,6.8c-13,12.8,2.4,21.7,5.3,24.7s12.6-1.9,10.1,4.7
	c-2.6,6.6,4.6,16.3,4.6,16.3l0.1-9.5c0,0-0.4-5.6,7.9-4.2c9.9,1.7-2.8,12-2.8,12C532,856.2,547.9,855.1,547.9,855.1z M499,1038.3
	l0.3-4.1c-11.8,17.2-25,54.7-25,54.7c6.5,11.4,45.6,14.4,45.6,14.4s10.2-39.2,16.3-38.4c6.1,0.8-3,36.1-3,36.1
	c23.6,8.4,52.9-9.5,52.9-9.5s-4.2-13.7,0.7-24.7c2.9-6.5,1.3-19.3-0.5-28.8C548.1,1051.1,499,1038.3,499,1038.3z"></path>
</svg>